name processed_emg_signals						
nRows=64						
nColumns=7						
 						
endheader						
time	LGLTMED	LRF	LADDLONG	LST	LTA	LGM
0.677	0.01895421	0.015396847	0.009955317	0.125644426	0.241478587	0.059693049
0.678	0.018607743	0.014824482	0.009721431	0.130411269	0.24557582	0.062775183
0.679	0.018270401	0.014281846	0.009504324	0.13523331	0.24970525	0.065931418
0.68	0.017943	0.013769243	0.009304123	0.140107613	0.253866942	0.069160872
0.681	0.017626377	0.013286972	0.009120954	0.145031142	0.258060926	0.072462568
0.682	0.017321383	0.012835327	0.008954942	0.150000762	0.262287192	0.075835435
0.683	0.017028883	0.012414597	0.008806209	0.155013244	0.266545692	0.079278307
0.684	0.016749758	0.012025068	0.008674874	0.160065263	0.270836331	0.082789924
0.685	0.016484904	0.011667019	0.008561057	0.165153406	0.275158971	0.08636893
0.686	0.01623523	0.011340728	0.008464873	0.170274172	0.279513422	0.090013874
0.687	0.016001656	0.011046464	0.008386438	0.175423978	0.283899446	0.093723211
0.688	0.015785117	0.010784497	0.008325865	0.180599161	0.288316747	0.097495299
0.689	0.015586559	0.010555087	0.008283264	0.185795979	0.292764975	0.101328403
0.69	0.015406938	0.010358493	0.008258746	0.191010621	0.297243722	0.105220696
0.691	0.015247223	0.010194968	0.008252417	0.196239206	0.301752518	0.109170254
0.692	0.015108388	0.01006476	0.008264383	0.20147779	0.306290831	0.113175063
0.693	0.014991421	0.009968113	0.008294747	0.20672237	0.310858063	0.117233017
0.694	0.014897313	0.009905265	0.00834361	0.211968886	0.315453549	0.12134192
0.695	0.014827066	0.009876447	0.008411071	0.21721323	0.320076557	0.125499488
0.696	0.014781685	0.009881887	0.008497227	0.222451249	0.324726283	0.129703348
0.697	0.014762182	0.009921806	0.00860217	0.227678748	0.329401851	0.133951042
0.698	0.014769573	0.009996417	0.008725993	0.2328915	0.334102311	0.138240028
0.699	0.014804878	0.01010593	0.008868782	0.238085246	0.338826639	0.142567682
0.7	0.014869116	0.010250545	0.009030622	0.243255704	0.343573734	0.1469313
0.701	0.014963312	0.010430454	0.009211596	0.248398573	0.348342416	0.151328099
0.702	0.015088488	0.010645845	0.009411781	0.253509539	0.353131429	0.155755222
0.703	0.015245666	0.010896894	0.00963125	0.258584281	0.357939434	0.16020974
0.704	0.015435865	0.01118377	0.009870074	0.263618478	0.362765014	0.164688651
0.705	0.015660103	0.011506632	0.010128319	0.268607809	0.36760667	0.169188889
0.706	0.015919391	0.011865631	0.010406044	0.273547968	0.372462823	0.173707323
0.707	0.016214737	0.012260905	0.010703307	0.278434662	0.377331809	0.178240758
0.708	0.01654714	0.012692584	0.011020158	0.28326362	0.382211884	0.182785946
0.709	0.016917592	0.013160786	0.011356643	0.2880306	0.387101223	0.187339581
0.71	0.017327076	0.013665615	0.0117128	0.292731394	0.391997916	0.191898309
0.711	0.017776563	0.014207166	0.012088663	0.29736183	0.396899973	0.196458727
0.712	0.018267015	0.014785518	0.01248426	0.301917786	0.401805325	0.201017389
0.713	0.018799378	0.015400738	0.01289961	0.306395187	0.40671182	0.205570813
0.714	0.019374584	0.016052877	0.013334727	0.310790017	0.411617227	0.210115478
0.715	0.019993551	0.016741974	0.013789615	0.315098321	0.416519239	0.214647834
0.716	0.020657177	0.01746805	0.014264272	0.319316211	0.421415468	0.219164305
0.717	0.021366343	0.01823111	0.014758689	0.323439874	0.426303454	0.223661294
0.718	0.022121912	0.019031143	0.015272845	0.327465574	0.431180663	0.228135184
0.719	0.022924722	0.019868121	0.015806713	0.331389658	0.436044487	0.232582348
0.72	0.02377559	0.020741995	0.016360256	0.335208563	0.44089225	0.23699915
0.721	0.02467531	0.0216527	0.016933426	0.338918818	0.445721207	0.241381951
0.722	0.025624649	0.022600151	0.017526166	0.342517052	0.450528549	0.245727114
0.723	0.026624348	0.023584243	0.01813841	0.345999996	0.455311405	0.250031009
0.724	0.027675121	0.024604847	0.018770078	0.349364488	0.460066842	0.25429002
0.725	0.02877765	0.025661818	0.019421082	0.352607479	0.464791875	0.258500546
0.726	0.029932587	0.026754984	0.02009132	0.355726037	0.46948346	0.26265901
0.727	0.031140554	0.027884154	0.02078068	0.358717349	0.474138507	0.266761861
0.728	0.032402137	0.02904911	0.021489037	0.361578728	0.47875388	0.270805583
0.729	0.033717889	0.030249614	0.022216252	0.364307611	0.483326397	0.274786699
0.73	0.035088325	0.0314854	0.022962176	0.366901573	0.487852841	0.278701773
0.731	0.036513924	0.032756179	0.023726644	0.369358318	0.49232996	0.282547422
0.732	0.037995126	0.034061635	0.024509478	0.371675692	0.49675447	0.286320314
0.733	0.039532333	0.035401427	0.025310487	0.373851682	0.501123063	0.290017181
0.734	0.041125902	0.036775187	0.026129465	0.375884418	0.50543241	0.293634817
0.735	0.042776152	0.038182519	0.02696619	0.377772177	0.509679165	0.297170088
0.736	0.044483357	0.039622999	0.027820428	0.379513388	0.513859971	0.300619938
0.737	0.046247747	0.041096177	0.028691926	0.381106628	0.517971467	0.303981392
0.738	0.048069506	0.042601572	0.029580419	0.382550632	0.522010288	0.307251559
0.739	0.049948772	0.044138675	0.030485625	0.383844287	0.525973075	0.310427645
0.74	0.051885636	0.045706949	0.031407245	0.38498664	0.529856479	0.313506951
